mtllib material.mtl
usemtl test
v 0.000000 2.000000 0.000000
v 0.000000 0.000000 0.000000
v 1.000000 2.000000 0.000000
v 1.000000 0.000000 0.000000
v 0.923889 2.000000 0.382690
v 0.923889 2.000000 -0.382690
v 0.923889 0.000000 0.382690
v 0.923889 0.000000 -0.382690
v 0.707092 2.000000 0.707092
v 0.707092 2.000000 -0.707092
v 0.707092 0.000000 0.707092
v 0.707092 0.000000 -0.707092
v 0.382690 2.000000 0.923889
v 0.382690 2.000000 -0.923889
v 0.382690 0.000000 0.923889
v 0.382690 0.000000 -0.923889
v 0.000000 2.000000 1.000000
v 0.000000 2.000000 -1.000000
v 0.000000 0.000000 1.000000
v 0.000000 0.000000 -1.000000
v -0.382690 2.000000 0.923889
v -0.382690 2.000000 -0.923889
v -0.382690 0.000000 0.923889
v -0.382690 0.000000 -0.923889
v -0.707092 2.000000 0.707092
v -0.707092 2.000000 -0.707092
v -0.707092 0.000000 0.707092
v -0.707092 0.000000 -0.707092
v -0.923889 2.000000 0.382690
v -0.923889 2.000000 -0.382690
v -0.923889 0.000000 0.382690
v -0.923889 0.000000 -0.382690
v -1.000000 2.000000 0.000000
v -1.000000 0.000000 0.000000
vn 0.000000 1.000000 0.000000
vn 0.000000 -1.000000 0.000000
vn 0.997809 0.000000 0.066163
vn 0.997809 0.000000 -0.066163
vn 0.947177 0.000000 0.320710
vn 0.947177 0.000000 -0.320710
vn 0.896541 0.000000 0.442961
vn 0.896541 0.000000 -0.442961
vn 0.752340 0.000000 0.658775
vn 0.752340 0.000000 -0.658775
vn 0.658775 0.000000 0.752340
vn 0.658775 0.000000 -0.752340
vn 0.442961 0.000000 0.896541
vn 0.442961 0.000000 -0.896541
vn 0.320710 0.000000 0.947177
vn 0.320710 0.000000 -0.947177
vn 0.066163 0.000000 0.997809
vn 0.066163 0.000000 -0.997809
vn -0.066163 0.000000 0.997809
vn -0.066163 0.000000 -0.997809
vn -0.320710 0.000000 0.947177
vn -0.320710 0.000000 -0.947177
vn -0.442961 0.000000 0.896541
vn -0.442961 0.000000 -0.896541
vn -0.658775 0.000000 0.752340
vn -0.658775 0.000000 -0.752340
vn -0.752340 0.000000 0.658775
vn -0.752340 0.000000 -0.658775
vn -0.896541 0.000000 0.442961
vn -0.896541 0.000000 -0.442961
vn -0.947177 0.000000 0.320710
vn -0.947177 0.000000 -0.320710
vn -0.997809 0.000000 0.066163
vn -0.997809 0.000000 -0.066163
vt 0.500000 0.636627
vt 0.500000 0.000000
vt 0.937500 0.477478
vt 0.937500 0.159149
vt 0.875000 0.477478
vt 0.875000 0.159149
vt 0.812500 0.477478
vt 0.812500 0.159149
vt 0.750000 0.477478
vt 0.750000 0.159149
vt 0.687500 0.477478
vt 0.687500 0.159149
vt 0.625000 0.477478
vt 0.625000 0.159149
vt 0.562500 0.477478
vt 0.562500 0.159149
vt 0.500000 0.477478
vt 0.500000 0.159149
vt 0.437500 0.477478
vt 0.437500 0.159149
vt 0.375000 0.477478
vt 0.375000 0.159149
vt 0.312500 0.477478
vt 0.312500 0.159149
vt 0.250000 0.477478
vt 0.250000 0.159149
vt 0.187500 0.477478
vt 0.187500 0.159149
vt 0.125000 0.477478
vt 0.125000 0.159149
vt 0.062500 0.477478
vt 0.062500 0.159149
vt 0.000000 0.477478
vt 0.000000 0.159149
f 8/34/6 12/32/10 6/33/8
f 12/32/10 10/31/12 6/33/8
f 12/32/10 16/30/14 10/31/12
f 16/30/14 14/29/16 10/31/12
f 16/30/14 20/28/18 14/29/16
f 20/28/18 18/27/20 14/29/16
f 20/28/18 24/26/22 18/27/20
f 24/26/22 22/25/24 18/27/20
f 24/26/22 28/24/26 22/25/24
f 28/24/26 26/23/28 22/25/24
f 28/24/26 32/22/30 26/23/28
f 32/22/30 30/21/32 26/23/28
f 32/22/30 34/20/34 30/21/32
f 34/20/34 33/19/33 30/21/32
f 34/20/34 31/18/31 33/19/33
f 31/18/31 29/17/29 33/19/33
f 31/18/31 27/16/27 29/17/29
f 27/16/27 25/15/25 29/17/29
f 27/16/27 23/14/23 25/15/25
f 23/14/23 21/13/21 25/15/25
f 23/14/23 19/12/19 21/13/21
f 19/12/19 17/11/17 21/13/21
f 19/12/19 15/10/15 17/11/17
f 15/10/15 13/9/13 17/11/17
f 15/10/15 11/8/11 13/9/13
f 11/8/11 9/7/9 13/9/13
f 11/8/11 7/6/7 9/7/9
f 7/6/7 5/5/5 9/7/9
f 7/6/7 4/4/3 5/5/5
f 4/4/3 3/3/4 5/5/5
f 4/4/3 8/34/6 3/3/4
f 8/34/6 6/33/8 3/3/4
f 12/32/2 8/34/2 2/2/2
f 16/30/2 12/32/2 2/2/2
f 20/28/2 16/30/2 2/2/2
f 24/26/2 20/28/2 2/2/2
f 28/24/2 24/26/2 2/2/2
f 32/22/2 28/24/2 2/2/2
f 34/20/2 32/22/2 2/2/2
f 31/18/2 34/20/2 2/2/2
f 27/16/2 31/18/2 2/2/2
f 23/14/2 27/16/2 2/2/2
f 19/12/2 23/14/2 2/2/2
f 15/10/2 19/12/2 2/2/2
f 11/8/2 15/10/2 2/2/2
f 7/6/2 11/8/2 2/2/2
f 4/4/2 7/6/2 2/2/2
f 8/34/2 4/4/2 2/2/2
f 6/33/1 10/31/1 1/1/1
f 10/31/1 14/29/1 1/1/1
f 14/29/1 18/27/1 1/1/1
f 18/27/1 22/25/1 1/1/1
f 22/25/1 26/23/1 1/1/1
f 26/23/1 30/21/1 1/1/1
f 30/21/1 33/19/1 1/1/1
f 33/19/1 29/17/1 1/1/1
f 29/17/1 25/15/1 1/1/1
f 25/15/1 21/13/1 1/1/1
f 21/13/1 17/11/1 1/1/1
f 17/11/1 13/9/1 1/1/1
f 13/9/1 9/7/1 1/1/1
f 9/7/1 5/5/1 1/1/1
f 5/5/1 3/3/1 1/1/1
f 3/3/1 6/33/1 1/1/1
