mtllib material.mtl
usemtl test
v 1.000000 1.000000 0.000000
v 0.000000 2.000000 0.000000
v 0.000000 1.000000 1.000000
v 0.000000 1.000000 -1.000000
v 0.000000 0.000000 0.000000
v -1.000000 1.000000 0.000000
vn 0.577350 0.577350 0.577350
vn 0.577350 0.577350 -0.577350
vn 0.577350 -0.577350 0.577350
vn 0.577350 -0.577350 -0.577350
vn -0.577350 0.577350 0.577350
vn -0.577350 0.577350 -0.577350
vn -0.577350 -0.577350 0.577350
vn -0.577350 -0.577350 -0.577350
vt 0.695913 0.875000
vt 0.695913 0.625000
vt 0.695913 0.375000
vt 0.695913 0.125000
vt 0.304087 0.875000
vt 0.304087 0.625000
vt 0.304087 0.375000
vt 0.304087 0.125000
f 1/6/1 2/6/1 3/6/1
f 2/5/5 6/5/5 3/5/5
f 5/7/3 1/7/3 3/7/3
f 6/8/7 5/8/7 3/8/7
f 2/2/2 1/2/2 4/2/2
f 6/1/6 2/1/6 4/1/6
f 1/3/4 5/3/4 4/3/4
f 5/4/8 6/4/8 4/4/8
